<svg preserveAspectRatio="none" width="100%" height="100%" overflow="visible" style="display: block;" viewBox="0 0 17 17" fill="none" xmlns="http://www.w3.org/2000/svg">
<path id="Vector" fill-rule="evenodd" clip-rule="evenodd" d="M15.92 8.73084C15.6588 8.68535 15.3902 8.74548 15.1733 8.89801C14.9563 9.05053 14.8089 9.28296 14.7633 9.54418C14.5039 11.0348 13.7259 12.3858 12.5668 13.3584C11.4078 14.3309 9.94222 14.8625 8.42917 14.8592C4.88417 14.8592 2 11.975 2 8.42917C2 4.88417 4.88417 2.00001 8.42917 2.00001C10.0408 2.00001 11.5567 2.59501 12.7417 3.67001L11.915 4.49667C11.8068 4.60441 11.7307 4.74004 11.6951 4.88847C11.6594 5.0369 11.6656 5.19232 11.713 5.33742C11.7605 5.48252 11.8472 5.61163 11.9636 5.71036C12.0801 5.8091 12.2216 5.87359 12.3725 5.89667L15.8825 6.43834C16.0107 6.45811 16.1418 6.44735 16.2651 6.40695C16.3884 6.36655 16.5004 6.29764 16.5921 6.20582C16.6837 6.114 16.7524 6.00185 16.7926 5.87849C16.8328 5.75513 16.8433 5.62403 16.8233 5.49584L16.2825 1.98667C16.2593 1.83588 16.1947 1.69446 16.096 1.57813C15.9973 1.46179 15.8682 1.37507 15.7232 1.3276C15.5782 1.28013 15.4229 1.27376 15.2745 1.30919C15.1261 1.34462 14.9904 1.42048 14.8825 1.52834L14.1558 2.25584C12.6027 0.803854 10.5553 -0.00267415 8.42917 6.66167e-06C3.78167 6.66167e-06 0 3.78167 0 8.42917C0 13.0775 3.78167 16.8583 8.42917 16.8583C12.5358 16.8583 16.0275 13.9267 16.7333 9.88751C16.7788 9.62628 16.7187 9.35767 16.5662 9.14076C16.4136 8.92386 16.1812 8.77641 15.92 8.73084" fill="var(--fill-0, #D7D7D7)"/>
</svg>
