<svg preserveAspectRatio="none" width="100%" height="100%" overflow="visible" style="display: block;" viewBox="0 0 20 20" fill="none" xmlns="http://www.w3.org/2000/svg">
<g id="icon-loudspeaker-mono" clip-path="url(#clip0_1477_17435)">
<path id="Ellipse 179 (Stroke)" d="M10 0.976562C14.9835 0.976562 19.0234 5.01649 19.0234 10C19.0234 14.9835 14.9835 19.0234 10 19.0234C5.01649 19.0234 0.976562 14.9835 0.976562 10C0.976562 5.01649 5.01649 0.976562 10 0.976562ZM2.51367 10.75C2.81072 13.7513 4.87193 16.2321 7.64551 17.1455C6.84585 15.6951 6.07648 13.5845 5.95898 10.75H2.51367ZM14.0576 10.75C13.9451 13.6009 13.2016 15.6897 12.4121 17.126C15.1565 16.1973 17.1913 13.7304 17.4863 10.75H14.0576ZM10.75 16.9883C10.836 16.8554 10.9241 16.7132 11.0117 16.5605C11.7162 15.3327 12.4409 13.4414 12.5566 10.75H10.75V16.9883ZM7.45996 10.75C7.57802 13.3546 8.29565 15.2432 8.99902 16.4951C9.08257 16.6438 9.16774 16.7829 9.25 16.9141V10.75H7.45996ZM12.4121 2.87305C13.2017 4.30937 13.945 6.39859 14.0576 9.25H17.4863C17.1913 6.26948 15.1567 3.80162 12.4121 2.87305ZM10.75 9.25H12.5566C12.4409 6.55865 11.7162 4.66734 11.0117 3.43945C10.924 3.28656 10.8362 3.14384 10.75 3.01074V9.25ZM9.25 3.08496C9.16759 3.21634 9.08272 3.35593 8.99902 3.50488C8.29565 4.75676 7.57802 6.64537 7.45996 9.25H9.25V3.08496ZM7.64551 2.85352C4.87178 3.76683 2.81073 6.24863 2.51367 9.25H5.95898C6.0765 6.41502 6.84571 4.30399 7.64551 2.85352Z" fill="var(--fill-0, #111111)" fill-opacity="0.5"/>
</g>
<defs>
<clipPath id="clip0_1477_17435">
<rect width="20" height="20" fill="white"/>
</clipPath>
</defs>
</svg>
