<svg preserveAspectRatio="none" width="100%" height="100%" overflow="visible" style="display: block;" viewBox="0 0 15 20" fill="none" xmlns="http://www.w3.org/2000/svg">
<g id="Group">
<path id="Vector" fill-rule="evenodd" clip-rule="evenodd" d="M7.16667 0C6.1721 0 5.21828 0.395088 4.51502 1.09835C3.81176 1.80161 3.41667 2.75544 3.41667 3.75V8.91917C3.41667 9.91373 3.81176 10.8676 4.51502 11.5708C5.21828 12.2741 6.1721 12.6692 7.16667 12.6692C8.16123 12.6692 9.11506 12.2741 9.81832 11.5708C10.5216 10.8676 10.9167 9.91373 10.9167 8.91917V3.75C10.9167 2.75544 10.5216 1.80161 9.81832 1.09835C9.11506 0.395088 8.16123 0 7.16667 0" fill="var(--fill-0, white)"/>
<path id="Vector_2" fill-rule="evenodd" clip-rule="evenodd" d="M14.3342 8.91917C14.3342 8.69815 14.2464 8.48619 14.0901 8.32991C13.9338 8.17363 13.7218 8.08583 13.5008 8.08583C13.2798 8.08583 13.0679 8.17363 12.9116 8.32991C12.7553 8.48619 12.6675 8.69815 12.6675 8.91917C12.666 10.3776 12.0859 11.7759 11.0546 12.8071C10.0234 13.8384 8.6251 14.4185 7.16667 14.42C5.70852 14.4182 4.3106 13.8382 3.27953 12.8071C2.24846 11.7761 1.66843 10.3781 1.66667 8.92C1.66667 8.69899 1.57887 8.48702 1.42259 8.33074C1.26631 8.17446 1.05435 8.08667 0.833333 8.08667C0.61232 8.08667 0.400358 8.17446 0.244078 8.33074C0.0877973 8.48702 0 8.69899 0 8.92C0 12.5892 2.77333 15.62 6.33333 16.0342V18.6567C6.33333 18.8777 6.42113 19.0896 6.57741 19.2459C6.73369 19.4022 6.94565 19.49 7.16667 19.49C7.38768 19.49 7.59964 19.4022 7.75592 19.2459C7.9122 19.0896 8 18.8777 8 18.6567V16.0342C11.5608 15.6192 14.3342 12.5892 14.3342 8.91917" fill="var(--fill-0, white)"/>
</g>
</svg>
