<svg preserveAspectRatio="none" width="100%" height="100%" overflow="visible" style="display: block;" viewBox="0 0 19 19" fill="none" xmlns="http://www.w3.org/2000/svg">
<path id="Vector" fill-rule="evenodd" clip-rule="evenodd" d="M6.38318 8.62523C6.19452 8.37112 6.01659 8.10923 5.84984 7.84023C5.75273 7.68114 5.71223 7.4939 5.73492 7.30889C5.75762 7.12388 5.84216 6.95198 5.97484 6.82107L7.73484 5.06107C7.87826 4.91809 7.96452 4.72766 7.97741 4.52556C7.9903 4.32346 7.92894 4.12361 7.80484 3.96357L5.23818 0.649401C4.65484 -0.104766 3.55401 -0.223099 2.83818 0.405234C1.89484 1.23357 0.760678 2.47523 0.429012 3.86773C-0.0734885 5.98273 0.527345 8.5544 3.21234 11.7961L6.38401 8.62607L6.38318 8.62523ZM17.9498 13.3602L14.6348 10.7936C14.4747 10.67 14.275 10.609 14.0731 10.622C13.8713 10.6351 13.6811 10.7212 13.5382 10.8644L11.7782 12.6252C11.6471 12.7577 11.4751 12.842 11.2902 12.8645C11.1052 12.887 10.9181 12.8465 10.759 12.7494C10.314 12.4761 9.63068 11.9977 8.78318 11.2311L16.7073 3.30607C16.8924 3.11802 16.9956 2.86447 16.9945 2.60067C16.9934 2.33687 16.8881 2.08417 16.7016 1.89764C16.5151 1.7111 16.2624 1.60583 15.9986 1.60475C15.7348 1.60368 15.4812 1.70689 15.2932 1.8919L0.293178 16.8919C0.105537 17.0794 7.81784e-05 17.3338 4.34484e-08 17.5991C-7.80915e-05 17.8644 0.105231 18.1188 0.292761 18.3065C0.480292 18.4941 0.734681 18.5996 0.999967 18.5997C1.26525 18.5997 1.5197 18.4944 1.70734 18.3069L5.64568 14.3677C9.44318 17.9261 12.3707 18.7319 14.7323 18.1702C16.124 17.8386 17.3657 16.7036 18.1948 15.7602C18.8232 15.0436 18.7032 13.9436 17.9507 13.3602" fill="var(--fill-0, white)"/>
</svg>
