<svg preserveAspectRatio="none" width="100%" height="100%" overflow="visible" style="display: block;" viewBox="0 0 11 11" fill="none" xmlns="http://www.w3.org/2000/svg">
<path id="Vector" fill-rule="evenodd" clip-rule="evenodd" d="M10.2576 4.77913H6.1779V0.699385C6.1779 0.513897 6.10422 0.336005 5.97306 0.204845C5.8419 0.073685 5.664 0 5.47852 0C5.29303 0 5.11514 0.073685 4.98398 0.204845C4.85282 0.336005 4.77913 0.513897 4.77913 0.699385V4.77913H0.699385C0.513897 4.77913 0.336005 4.85282 0.204845 4.98398C0.073685 5.11514 0 5.29303 0 5.47852C0 5.664 0.073685 5.8419 0.204845 5.97306C0.336005 6.10422 0.513897 6.1779 0.699385 6.1779H4.77913V10.2576C4.77913 10.4431 4.85282 10.621 4.98398 10.7522C5.11514 10.8833 5.29303 10.957 5.47852 10.957C5.664 10.957 5.8419 10.8833 5.97306 10.7522C6.10422 10.621 6.1779 10.4431 6.1779 10.2576V6.1779H10.2576C10.4431 6.1779 10.621 6.10422 10.7522 5.97306C10.8833 5.8419 10.957 5.664 10.957 5.47852C10.957 5.29303 10.8833 5.11514 10.7522 4.98398C10.621 4.85282 10.4431 4.77913 10.2576 4.77913" fill="var(--fill-0, white)"/>
</svg>
