<svg preserveAspectRatio="none" width="100%" height="100%" overflow="visible" style="display: block;" viewBox="0 0 10 10" fill="none" xmlns="http://www.w3.org/2000/svg">
<path id="Vector" fill-rule="evenodd" clip-rule="evenodd" d="M8.54804 3.98261H5.14825V0.582821C5.14825 0.428247 5.08685 0.280004 4.97755 0.170704C4.86825 0.0614042 4.72 0 4.56543 0C4.41086 0 4.26261 0.0614042 4.15331 0.170704C4.04401 0.280004 3.98261 0.428247 3.98261 0.582821V3.98261H0.582821C0.428247 3.98261 0.280004 4.04401 0.170704 4.15331C0.0614042 4.26261 0 4.41086 0 4.56543C0 4.72 0.0614042 4.86825 0.170704 4.97755C0.280004 5.08685 0.428247 5.14825 0.582821 5.14825H3.98261V8.54804C3.98261 8.70261 4.04401 8.85086 4.15331 8.96016C4.26261 9.06946 4.41086 9.13086 4.56543 9.13086C4.72 9.13086 4.86825 9.06946 4.97755 8.96016C5.08685 8.85086 5.14825 8.70261 5.14825 8.54804V5.14825H8.54804C8.70261 5.14825 8.85086 5.08685 8.96016 4.97755C9.06946 4.86825 9.13086 4.72 9.13086 4.56543C9.13086 4.41086 9.06946 4.26261 8.96016 4.15331C8.85086 4.04401 8.70261 3.98261 8.54804 3.98261" fill="var(--fill-0, #111111)" fill-opacity="0.5"/>
</svg>
