<svg preserveAspectRatio="none" width="100%" height="100%" overflow="visible" style="display: block;" viewBox="0 0 10 17" fill="none" xmlns="http://www.w3.org/2000/svg">
<path id="Vector" fill-rule="evenodd" clip-rule="evenodd" d="M1.35332 16.1883C1.00832 16.1883 0.663316 16.0533 0.393316 15.7983C0.141421 15.5453 0 15.2028 0 14.8458C0 14.4888 0.141421 14.1463 0.393316 13.8933L6.19832 8.08832L0.393316 2.29832C0.141421 2.04531 0 1.70283 0 1.34582C0 0.988799 0.141421 0.646318 0.393316 0.393316C0.646318 0.141421 0.988799 0 1.34582 0C1.70283 0 2.04531 0.141421 2.29832 0.393316L9.04832 7.14332C9.30021 7.39632 9.44163 7.7388 9.44163 8.09582C9.44163 8.45283 9.30021 8.79532 9.04832 9.04832L2.29832 15.7983C2.04332 16.0533 1.69832 16.1883 1.35332 16.1883" fill="var(--fill-0, white)"/>
</svg>
