<svg preserveAspectRatio="none" width="100%" height="100%" overflow="visible" style="display: block;" viewBox="0 0 37 37" fill="none" xmlns="http://www.w3.org/2000/svg">
<path id="Vector" fill-rule="evenodd" clip-rule="evenodd" d="M27.0117 15.3583L17.7067 24.665C17.3932 24.9763 16.9693 25.1511 16.5275 25.1511C16.0857 25.1511 15.6618 24.9763 15.3483 24.665L9.655 18.9717C9.50026 18.8169 9.37751 18.6332 9.29377 18.431C9.21002 18.2289 9.16692 18.0122 9.16692 17.7933C9.16692 17.3514 9.34249 16.9275 9.655 16.615C9.96751 16.3025 10.3914 16.1269 10.8333 16.1269C11.2753 16.1269 11.6992 16.3025 12.0117 16.615L16.5267 21.13L24.655 13.0017C24.8097 12.8469 24.9934 12.7242 25.1956 12.6404C25.3978 12.5567 25.6145 12.5136 25.8333 12.5136C26.0522 12.5136 26.2689 12.5567 26.471 12.6404C26.6732 12.7242 26.8569 12.8469 27.0117 13.0017C27.1664 13.1564 27.2892 13.3401 27.3729 13.5423C27.4566 13.7445 27.4998 13.9612 27.4998 14.18C27.4998 14.3988 27.4566 14.6155 27.3729 14.8177C27.2892 15.0199 27.1664 15.2036 27.0117 15.3583M18.3333 0C8.20833 0 0 8.20833 0 18.3333C0 28.4583 8.20833 36.6667 18.3333 36.6667C28.4583 36.6667 36.6667 28.4583 36.6667 18.3333C36.6667 8.20833 28.4583 0 18.3333 0Z" fill="url(#paint0_linear_110_6621)"/>
<defs>
<linearGradient id="paint0_linear_110_6621" x1="36.6667" y1="1.78318" x2="-11.3826" y2="32.8007" gradientUnits="userSpaceOnUse">
<stop stop-color="#6490FF"/>
<stop offset="1" stop-color="#6490FF" stop-opacity="0.3"/>
</linearGradient>
</defs>
</svg>
