<svg preserveAspectRatio="none" width="100%" height="100%" overflow="visible" style="display: block;" viewBox="0 0 20 20" fill="none" xmlns="http://www.w3.org/2000/svg">
<g id="icon-loudspeaker">
<path id="Union" d="M14.9785 16.9613V17.4662C14.9786 17.6089 14.9418 17.7498 14.8721 17.8744C14.8023 17.9988 14.7018 18.1037 14.5801 18.1781C14.4583 18.2525 14.3193 18.2938 14.1768 18.2992C14.034 18.3045 13.8917 18.2736 13.7646 18.2084L5.0293 13.7191H2.43457C1.95964 13.719 1.57422 13.3327 1.57422 12.8578V7.14099C1.57463 6.66638 1.95989 6.28072 2.43457 6.28063H4.29785L14.9785 16.9613ZM2.86328 1.33825C3.21474 0.986789 3.78525 0.986805 4.13672 1.33825L7.7041 4.90563L13.7646 1.79138C13.8917 1.72615 14.0341 1.69432 14.1768 1.69958C14.3193 1.70492 14.4583 1.74733 14.5801 1.82165C14.7018 1.89605 14.8023 2.00094 14.8721 2.12536C14.9418 2.24972 14.9785 2.39003 14.9785 2.53259V12.18L18.6621 15.8636C19.0136 16.2151 19.0136 16.7856 18.6621 17.1371C18.3106 17.4882 17.74 17.4884 17.3887 17.1371L2.86328 2.61169C2.51194 2.26032 2.51212 1.68974 2.86328 1.33825ZM17.6963 7.63903C18.2994 7.63903 18.7877 8.12799 18.7881 8.73181V11.2679C18.7881 11.8713 18.2996 12.3607 17.6963 12.3607H16.0674V7.63903H17.6963Z" fill="var(--fill-0, #4472E4)"/>
</g>
</svg>
